<svg width="117" height="40" viewBox="0 0 117 40" fill="none" xmlns="http://www.w3.org/2000/svg">
<g clip-path="url(#clip0_1_9047)">
<path d="M116.41 23.7602L116.412 23.7578C112.079 28.0908 105.055 28.0908 100.722 23.7578V31.6042V39.4505H116.412V31.6042L116.414 23.7625C116.412 23.7578 116.41 23.7578 116.41 23.7602Z" fill="#002120"/>
<path d="M100.722 8.06519H85.0314V15.9115L85.0291 23.7532C85.0314 23.7555 85.0337 23.7555 85.0337 23.7532L85.0314 23.7555C89.3643 19.4226 96.3888 19.4226 100.722 23.7555V15.9092V8.06519Z" fill="#002120"/>
<path d="M20.8847 37.7346L20.7753 39.3923H4.25378C1.27125 39.3923 0 39.4482 0 39.4482L0.498254 38.5099C1.60419 36.4098 1.87893 36.0233 1.87893 19.4482C1.87893 3.37136 1.65774 3.15017 0.498254 0.940629L0 0H9.28056L8.7823 0.9383C7.67637 3.03842 7.40163 3.53434 7.40163 19.5017V35.8556H11.7113C18.5611 35.8556 19.4459 34.2538 21.4901 31.2689C21.4924 31.2712 21.2154 33.2596 20.8847 37.7346Z" fill="#002120"/>
<path d="M27.4575 23.7555C27.4575 29.6112 29.39 36.1304 37.1269 36.1304C44.7521 36.1304 46.7963 32.2072 46.7963 32.2072C46.7963 36.1839 43.6461 39.9977 35.858 39.9977C26.8522 39.9977 21.7695 34.142 21.7695 23.9767C21.7695 12.2096 28.2329 7.45752 35.4715 7.45752C46.8522 7.45752 48.0676 17.0151 48.0676 23.2037V23.7555H27.4575ZM35.3039 10.773C32.0443 10.773 27.6252 11.9325 27.5134 21.0501L42.2655 19.9441C42.2631 16.9616 41.8231 10.773 35.3039 10.773Z" fill="#002120"/>
<path d="M71.2131 20.4959L64.7498 39.4459H57.9L51.8232 20.6612C49.2271 12.4284 48.2865 9.5553 46.5752 8.06519H56.5193C55.7999 8.56345 55.0269 9.38999 55.0269 11.2689C55.0269 12.7055 55.5251 14.638 57.127 19.9418L61.0502 33.0896C61.4925 34.5821 61.879 36.2934 61.879 36.2934C61.879 36.2934 62.2655 34.6915 62.7638 33.0896L66.7405 20.4936C68.5077 14.9127 69.1154 12.759 69.1154 11.2666C69.1154 9.38766 68.3982 8.55879 67.6788 8.06287H76.6846C74.8034 9.77881 73.3668 14.1979 71.2131 20.4959Z" fill="#002120"/>
</g>
<defs>
<clipPath id="clip0_1_9047">
<rect width="116.8" height="40" fill="white"/>
</clipPath>
</defs>
</svg>
